<?xml version="1.0"?>
<svg xmlns="http://www.w3.org/2000/svg" xmlns:xlink="http://www.w3.org/1999/xlink" xmlns:svgjs="http://svgjs.com/svgjs" version="1.1" width="512" height="512" x="0" y="0" viewBox="0 0 368 368" style="enable-background:new 0 0 512 512" xml:space="preserve" class=""><g><path xmlns="http://www.w3.org/2000/svg" d="m184 0c-101.457031 0-184 82.542969-184 184s82.542969 184 184 184 184-82.542969 184-184-82.542969-184-184-184zm0 352c-92.640625 0-168-75.359375-168-168s75.359375-168 168-168 168 75.359375 168 168-75.359375 168-168 168zm0 0" fill="#707070" data-original="#000000" style="" class=""/><path xmlns="http://www.w3.org/2000/svg" d="m260.847656 96.648438-111.847656 47.9375s-.007812 0-.007812.007812l-.136719.054688c-1.886719.808593-3.390625 2.3125-4.199219 4.199218l-.054688.136719s0 .007813-.007812.007813l-47.9375 111.847656c-1.289062 3.007812-.617188 6.496094 1.695312 8.808594 1.519532 1.535156 3.570313 2.351562 5.648438 2.351562 1.0625 0 2.136719-.207031 3.152344-.648438l111.847656-47.9375s.007812 0 .007812-.007812l.136719-.054688c1.886719-.808593 3.390625-2.3125 4.199219-4.199218l.054688-.136719s0-.007813.007812-.007813l47.9375-111.847656c1.289062-3.007812.617188-6.496094-1.695312-8.808594-2.304688-2.328124-5.800782-3-8.800782-1.703124zm-106.152344 69.367187 47.289063 47.289063-82.761719 35.472656zm58.609376 35.96875-47.289063-47.289063 82.761719-35.472656zm0 0" fill="#707070" data-original="#000000" style="" class=""/></g></svg>
